<svg width="126" height="126" viewBox="0 0 126 126" fill="none" xmlns="http://www.w3.org/2000/svg">
<g filter="url(#filter0_d_1_223)">
<rect x="38.36" y="20.36" width="48.96" height="48.96" rx="12.24" fill="#7F56D9"/>
<g clip-path="url(#clip0_1_223)">
<path d="M75.2712 50.2586H74.1875V49.3023H75.2712C76.0362 49.3023 76.6737 48.6648 76.6737 47.8998V41.2061C76.6737 39.9948 75.6537 38.9748 74.4425 38.9748H67.43C66.2187 38.9748 65.1987 39.9948 65.1987 41.2061V47.8998C65.1987 48.6648 65.8362 49.3023 66.6012 49.3023H67.685V50.2586H66.6012C65.2625 50.2586 64.2425 49.1748 64.2425 47.8998V41.2061C64.2425 39.4211 65.645 38.0186 67.43 38.0186H74.5062C76.2912 38.0186 77.6937 39.4211 77.6937 41.2061V47.8998C77.6937 49.2386 76.61 50.2586 75.2712 50.2586ZM70.9362 36.9986C69.0237 36.9986 67.43 35.4048 67.43 33.4923C67.43 31.5798 69.0237 29.9861 70.9362 29.9861C72.8487 29.9861 74.4425 31.5798 74.4425 33.4923C74.4425 35.4048 72.9125 36.9986 70.9362 36.9986ZM70.9362 31.0061C69.5337 31.0061 68.3862 32.1536 68.3862 33.5561C68.3862 34.9586 69.5337 36.1061 70.9362 36.1061C72.3387 36.1061 73.4862 34.9586 73.4862 33.5561C73.4862 32.1536 72.3387 31.0061 70.9362 31.0061Z" fill="#F5F5F4"/>
<path d="M72.5938 59.6935C71.9563 59.6935 71.3825 59.3748 71 58.9285C70.6175 59.3748 70.0438 59.6935 69.4063 59.6935C68.2588 59.6935 67.3025 58.7373 67.3025 57.5898V42.0348H68.2588V57.5898C68.2588 58.2273 68.7688 58.7373 69.4063 58.7373C70.0438 58.7373 70.49 58.1635 70.49 57.5898V49.8123H71.4463V57.5898C71.4463 58.2273 71.9563 58.7373 72.5938 58.7373C73.2313 58.7373 73.7413 58.2273 73.7413 57.5898V42.0348H74.6975V57.5898C74.6975 58.7373 73.7413 59.6935 72.5938 59.6935Z" fill="#F5F5F4"/>
<path d="M65.7087 53.0636H48.05V33.0461H66.0275V34.0024H49.0062V52.1074H65.7087V53.0636Z" fill="#F5F5F4"/>
<path d="M62.585 41.9712H51.62V42.9274H62.585V41.9712Z" fill="#F5F5F4"/>
<path d="M62.585 45.2224H51.62V46.1787H62.585V45.2224Z" fill="#F5F5F4"/>
<path d="M62.585 48.5374H51.62V49.4936H62.585V48.5374Z" fill="#F5F5F4"/>
</g>
</g>
<defs>
<filter id="filter0_d_1_223" x="0.109985" y="0.469986" width="125.46" height="125.46" filterUnits="userSpaceOnUse" color-interpolation-filters="sRGB">
<feFlood flood-opacity="0" result="BackgroundImageFix"/>
<feColorMatrix in="SourceAlpha" type="matrix" values="0 0 0 0 0 0 0 0 0 0 0 0 0 0 0 0 0 0 127 0" result="hardAlpha"/>
<feOffset dy="18.36"/>
<feGaussianBlur stdDeviation="19.125"/>
<feComposite in2="hardAlpha" operator="out"/>
<feColorMatrix type="matrix" values="0 0 0 0 0.0509804 0 0 0 0 0.0470588 0 0 0 0 0.219608 0 0 0 0.15 0"/>
<feBlend mode="normal" in2="BackgroundImageFix" result="effect1_dropShadow_1_223"/>
<feBlend mode="normal" in="SourceGraphic" in2="effect1_dropShadow_1_223" result="shape"/>
</filter>
<clipPath id="clip0_1_223">
<rect width="30.6" height="30.6" fill="white" transform="translate(47.54 29.5399)"/>
</clipPath>
</defs>
</svg>
